<?xml version="1.0" standalone="no"?><!DOCTYPE svg PUBLIC "-//W3C//DTD SVG 1.1//EN" "http://www.w3.org/Graphics/SVG/1.1/DTD/svg11.dtd"><svg t="1563000817416" class="icon" viewBox="0 0 1024 1024" version="1.1" xmlns="http://www.w3.org/2000/svg" p-id="2749" xmlns:xlink="http://www.w3.org/1999/xlink" width="200" height="200"><defs><style type="text/css"></style></defs><path d="M852.544 554.944c-17.664-41.6-55.04-67.008-100.16-67.008-33.856 0-66.112 14.656-88.448 40.064a118.528 118.528 0 0 0-27.712 94.272l0.576 3.456c7.616 40.832-6.592 68.48-19.84 84.48a110.208 110.208 0 0 1-81.28 39.232c-26.624-27.392-33.344-77.056-18.944-142.272 68.352-5.568 146.496-55.104 169.984-179.008 13.568-4.224 31.296-8.832 41.728-11.456 22.528-5.824 36.864-9.6 48.128-14.656a61.568 61.568 0 0 0 20.352-14.592c59.2-8.128 102.72-46.08 115.968-102.976l0.64-3.392c4.544-25.6-2.88-52.352-20.48-73.344-16.064-19.328-39.232-32.768-67.392-39.296a161.408 161.408 0 0 0-30.656-51.392C756.352 72.96 695.296 47.616 627.584 47.616c-65.984 0-166.784 23.424-282.496 130.56a286.464 286.464 0 0 0-42.112-3.072c-111.168 0-190.208 58.688-206.272 153.152a63.808 63.808 0 0 0 64 74.56l14.784-1.472c-18.56 49.344-36.736 119.808-25.024 202.112 25.472 179.584 171.072 372.864 430.528 372.864 27.392 0 55.936-2.176 84.992-6.4a289.408 289.408 0 0 0 92.672-34.816l0.128-0.064c100.352-44.096 161.856-141.376 169.152-268.48l0.128-3.584c0.064-51.904-30.72-93.632-75.52-108.032z m-125.312 326.336l0.832 0.192c-17.344 9.92-43.584 22.464-70.784 27.264-26.752 3.904-52.16 5.76-76.16 5.76-246.4 0-351.36-192.064-369.536-319.744-17.92-126.144 48-220.416 50.688-242.304-5.696-22.4-19.52-29.248-35.456-29.248-25.472 0-56.192 17.728-66.112 17.728l-3.2-2.24c13.632-80.448 88-101.632 145.472-101.632 26.048 0 48.64 4.352 60.416 9.472 99.584-101.12 192.256-137.024 264.192-137.024 93.248 0 151.552 60.352 144.384 116.48l11.136-0.384c50.624 0 73.344 24.576 69.888 44.736-10.304 44.032-46.72 56.832-80.32 56.832-8.448 0-16.768-0.832-24.32-2.176-24.896-4.352-40.768-15.424-45.632-15.424l-1.728 1.792c-0.32 23.68 57.344 25.536 50.752 34.048-22.08 9.792-113.408 24.704-121.6 44.352-13.76 132.096-89.92 156.096-126.4 156.096-13.888 0-22.016-3.52-18.752-5.824 44.352-34.624 35.904-79.552 8.256-79.552-6.4 0-13.76 2.432-21.76 7.936-207.36 161.664-85.184 423.808 120.576 423.808h3.776c-117.184-23.936-213.504-135.872-144.576-307.84l3.52-1.088 3.264 4.48c-27.072 115.264 3.328 187.072 53.76 221.824 7.488 1.216 15.104 1.664 22.72 1.664 90.752 0 184.896-79.68 162.88-196.992a55.424 55.424 0 0 1 54.976-64.512c21.76 0 42.624 13.184 47.744 43.072 0.896 6.72 1.408 13.312 1.792 19.84h0.128l-0.128 0.128v-0.064c-22.208 4.736-42.176 22.848-43.456 53.632 1.472 106.816-83.072 167.936-164.8 168.576h2.176c82.112 0 167.488-61.248 166.016-168.576a54.784 54.784 0 0 1 55.488-54.912c25.024 0 49.152 16.832 49.152 51.584-6.848 118.784-66.24 188.992-139.264 218.24z" fill="" p-id="2750"></path><path d="M660.608 284.096a40.256 40.256 0 0 0 30.656-14.336l-15.488 4.032c-17.664 0-32.128-14.528-32.128-32.448s14.464-32.448 32.128-32.448l8.896 1.344a39.744 39.744 0 0 0-24-8.128 40.768 40.768 0 0 0-40.64 41.024c0 22.592 18.176 40.96 40.576 40.96z" fill="" p-id="2751"></path><path d="M668.096 220.288l-4.16 7.552 8.448 8.256 8.448-8.256-4.224-7.552-4.288-1.152z" fill="" p-id="2752"></path></svg>